<?xml version="1.0" encoding="UTF-8" standalone="no"?> <!-- Created with Vectornator for iOS (http://vectornator.io/) --><!DOCTYPE svg PUBLIC "-//W3C//DTD SVG 1.1//EN" "http://www.w3.org/Graphics/SVG/1.1/DTD/svg11.dtd">
<svg style="fill-rule:evenodd;clip-rule:evenodd;stroke-linecap:round;stroke-linejoin:round;" xmlns:vectornator="http://vectornator.io" xmlns:xlink="http://www.w3.org/1999/xlink" xmlns="http://www.w3.org/2000/svg" xml:space="preserve" version="1.1" viewBox="0 0 64.84 64.84">
<metadata>
<vectornator:setting key="RulersVisible" value="1"/>
<vectornator:setting key="Units" value="Points"/>
<vectornator:setting key="DynamicGuides" value="1"/>
<vectornator:setting key="GuidesVisible" value="1"/>
<vectornator:setting key="CMYKEnabledKey" value="0"/>
<vectornator:setting key="SnapToGuides" value="1"/>
<vectornator:setting key="GridSpacing" value="36"/>
</metadata>
<defs/>
<g id="Layer 2" vectornator:layerName="Layer 2">
<path d="M5.77653+0L59.0635+0C62.2538+0+64.84+2.58624+64.84+5.77653L64.84+59.0635C64.84+62.2538+62.2538+64.84+59.0635+64.84L5.77652+64.84C2.58624+64.84+0+62.2538+0+59.0635L0+5.77653C0+2.58624+2.58624+0+5.77653+0Z" opacity="1" fill="#000000"/>
<g opacity="1">
<path stroke="#ffffff" stroke-opacity="0" stroke-width="0.5" d="M31.749+3.0635L25.1829+6.84167C24.8123+7.05491+24.8122+7.4009+25.1826+7.61447L31.7493+11.4006C32.1197+11.6142+32.7201+11.6139+33.0903+11.4L39.6395+7.61514C40.0097+7.40121+40.0095+7.05461+39.6391+6.84099L33.0906+3.06418C32.7202+2.85056+32.1196+2.85026+31.749+3.0635Z" fill="#ff0000" stroke-linecap="butt" opacity="1" stroke-linejoin="round"/>
<path d="M22.9616+8.11972L16.4201+11.9045C16.0503+12.1185+16.0505+12.4651+16.4204+12.6787L22.9613+16.4555C23.3313+16.6691+23.9311+16.6693+24.3012+16.4558L30.8509+12.6784C31.2209+12.4649+31.2211+12.1186+30.8512+11.9049L24.3009+8.11938C23.931+7.90563+23.3314+7.90578+22.9616+8.11972Z" opacity="1" fill="#ff0000"/>
<path stroke="#000000" stroke-opacity="0" stroke-width="0.5" d="M40.511+8.11972L33.9618+11.9045C33.5916+12.1185+33.5918+12.4651+33.9622+12.6787L40.5107+16.4555C40.8811+16.6691+41.4816+16.6691+41.8519+16.4555L48.4005+12.6787C48.7708+12.4651+48.771+12.1185+48.4008+11.9045L41.8516+8.11972C41.4814+7.90578+40.8812+7.90578+40.511+8.11972Z" fill="#ff0000" stroke-linecap="butt" opacity="1" stroke-linejoin="round"/>
<path d="M49.272+13.1833L42.7235+16.9601C42.3531+17.1737+42.3531+17.52+42.7235+17.7336L49.272+21.5105C49.6424+21.7241+50.2429+21.7241+50.6133+21.5105L57.1618+17.7336C57.5322+17.52+57.5322+17.1737+57.1618+16.9601L50.6133+13.1833C50.2429+12.9697+49.6424+12.9697+49.272+13.1833Z" opacity="1" fill="#ff0000"/>
<path d="M14.2+13.1833L7.6591+16.9601C7.28915+17.1737+7.28915+17.52+7.6591+17.7336L14.2+21.5105C14.5699+21.7241+15.1698+21.7242+15.5399+21.5108L22.0896+17.7333C22.4596+17.5199+22.4596+17.1738+22.0896+16.9604L15.5399+13.1829C15.1698+12.9695+14.5699+12.9697+14.2+13.1833Z" opacity="1" fill="#ff0000"/>
<path d="M7.21952+47.8616L13.768+51.6384C14.1384+51.852+14.4387+51.6786+14.4387+51.251L14.4387+43.6894C14.4387+43.2618+14.1384+42.7421+13.768+42.5284L7.21952+38.7516C6.84914+38.538+6.54889+38.7115+6.54889+39.139L6.54889+46.7006C6.54889+47.1282+6.84914+47.648+7.21952+47.8616Z" opacity="1" fill="#d10000"/>
<path d="M15.9793+52.918L22.5309+56.7194C22.9004+56.9338+23.2+56.7613+23.2+56.3341L23.2+48.7529C23.2+48.3257+22.9+47.8063+22.5299+47.5929L15.9803+43.8155C15.6102+43.602+15.3102+43.7753+15.3102+44.2025L15.3102+51.7562C15.3102+52.1834+15.6098+52.7036+15.9793+52.918Z" opacity="1" fill="#d10000"/>
<path d="M7.21899+37.7422L13.7686+41.5196C14.1386+41.733+14.4387+41.5597+14.4387+41.1325L14.4387+33.5789C14.4387+33.1517+14.1388+32.632+13.7689+32.4183L7.21865+28.6328C6.84875+28.4191+6.54889+28.5921+6.54889+29.0193L6.54889+36.5821C6.54889+37.0094+6.8489+37.5287+7.21899+37.7422Z" opacity="1" fill="#d10000"/>
<path d="M7.21952+27.6234L13.768+31.4002C14.1384+31.6138+14.4387+31.4404+14.4387+31.0128L14.4387+23.4329C14.4387+23.0053+14.1384+22.4855+13.768+22.2719L7.21952+18.4951C6.84914+18.2815+6.54889+18.4549+6.54889+18.8825L6.54889+26.4624C6.54889+26.89+6.84914+27.4098+7.21952+27.6234Z" opacity="1" fill="#d10000"/>
<path d="M24.7437+57.999L31.3074+61.7758C31.6787+61.9894+31.9796+61.8154+31.9796+61.3871L31.9796+53.8098C31.9796+53.3815+31.6787+52.8612+31.3074+52.6475L24.7437+48.8707C24.3725+48.6571+24.0715+48.8312+24.0715+49.2595L24.0715+56.8367C24.0715+57.265+24.3725+57.7854+24.7437+57.999Z" opacity="1" fill="#d10000"/>
<path d="M57.6198+47.8606L51.0452+51.6393C50.6744+51.8524+50.3738+51.6785+50.3738+51.2508L50.3738+43.6896C50.3738+43.2619+50.6744+42.7425+51.0452+42.5294L57.6198+38.7507C57.9905+38.5376+58.2911+38.7115+58.2911+39.1392L58.2911+46.7004C58.2911+47.1281+57.9905+47.6475+57.6198+47.8606Z" opacity="1" fill="#d0d2d3"/>
<path d="M48.8334+52.9183L42.2905+56.7191C41.9211+56.9337+41.6217+56.7613+41.6217+56.3341L41.6217+48.7529C41.6217+48.3257+41.9216+47.8062+42.2915+47.5926L48.8324+43.8158C49.2024+43.6022+49.5023+43.7753+49.5023+44.2025L49.5023+51.7562C49.5023+52.1834+49.2028+52.7037+48.8334+52.9183Z" opacity="1" fill="#d0d2d3"/>
<path d="M57.6204+37.7412L51.0445+41.5206C50.6741+41.7335+50.3738+41.5597+50.3738+41.1325L50.3738+33.5789C50.3738+33.1517+50.6739+32.6325+51.0442+32.4193L57.6208+28.6318C57.991+28.4186+58.2911+28.5921+58.2911+29.0193L58.2911+36.5821C58.2911+37.0094+57.9908+37.5283+57.6204+37.7412Z" opacity="1" fill="#d0d2d3"/>
<path d="M57.6184+27.6232L51.0465+31.4003C50.675+31.6139+50.3738+31.4396+50.3738+31.0111L50.3738+23.4346C50.3738+23.0061+50.675+22.4856+51.0465+22.2721L57.6184+18.495C57.9899+18.2814+58.2911+18.4557+58.2911+18.8842L58.2911+26.4607C58.2911+26.8892+57.9899+27.4097+57.6184+27.6232Z" opacity="1" fill="#d0d2d3"/>
<path d="M40.0711+57.999L33.5302+61.7758C33.1603+61.9894+32.8604+61.8163+32.8604+61.3891L32.8604+53.8078C32.8604+53.3806+33.1603+52.8612+33.5302+52.6475L40.0711+48.8707C40.4411+48.6571+40.741+48.8302+40.741+49.2574L40.741+56.8387C40.741+57.2659+40.4411+57.7854+40.0711+57.999Z" opacity="1" fill="#d0d2d3"/>
<path d="M33.0903+51.8947L39.6395+48.1099C40.0097+47.8959+40.0095+47.5493+39.6391+47.3357L33.0906+43.5589C32.7202+43.3453+32.1196+43.345+31.749+43.5582L25.1829+47.3364C24.8123+47.5496+24.8122+47.8956+25.1826+48.1092L31.7493+51.8953C32.1197+52.1089+32.7201+52.1086+33.0903+51.8947Z" opacity="1" fill="#ff0000"/>
<path d="M41.8519+46.8311L48.4005+43.0543C48.7708+42.8407+48.7708+42.4944+48.4005+42.2807L41.8519+38.5039C41.4816+38.2903+40.8811+38.2903+40.5107+38.5039L33.9622+42.2807C33.5918+42.4944+33.5918+42.8407+33.9622+43.0543L40.5107+46.8311C40.8811+47.0447+41.4816+47.0447+41.8519+46.8311Z" opacity="1" fill="#ff0000"/>
<path d="M24.3012+46.8315L30.8509+43.054C31.2209+42.8405+31.2209+42.4945+30.8509+42.2811L24.3012+38.5036C23.9311+38.2902+23.3313+38.2903+22.9613+38.5039L16.4204+42.2807C16.0505+42.4944+16.0505+42.8407+16.4204+43.0543L22.9613+46.8311C23.3313+47.0447+23.9311+47.0449+24.3012+46.8315Z" opacity="1" fill="#ff0000"/>
<path d="M48.8324+22.2719L42.2915+18.4951C41.9216+18.2815+41.6217+18.4546+41.6217+18.8818L41.6217+26.4631C41.6217+26.8903+41.9216+27.4098+42.2915+27.6234L48.8324+31.4002C49.2024+31.6138+49.5023+31.4407+49.5023+31.0135L49.5023+23.4322C49.5023+23.005+49.2024+22.4855+48.8324+22.2719Z" opacity="1" fill="#d10000"/>
<path d="M40.0711+17.2162L33.5302+13.4318C33.1603+13.2177+32.8604+13.3907+32.8604+13.8181L32.8604+21.3802C32.8604+21.8076+33.16+22.3282+33.5295+22.5429L40.0718+26.3433C40.4414+26.558+40.741+26.3855+40.741+25.9581L40.741+18.3776C40.741+17.9502+40.4411+17.4302+40.0711+17.2162Z" opacity="1" fill="#d10000"/>
<path d="M48.8328+32.4179L42.2912+28.6331C41.9214+28.4192+41.6217+28.5921+41.6217+29.0193L41.6217+36.5822C41.6217+37.0094+41.9216+37.5289+42.2915+37.7425L48.8324+41.5193C49.2024+41.7329+49.5023+41.5598+49.5023+41.1326L49.5023+33.5788C49.5023+33.1516+49.2025+32.6319+48.8328+32.4179Z" opacity="1" fill="#d10000"/>
<path d="M15.9808+22.2719L22.5293+18.4951C22.8997+18.2815+23.2+18.4549+23.2+18.8825L23.2+26.4624C23.2+26.89+22.8997+27.4098+22.5293+27.6234L15.9808+31.4002C15.6105+31.6138+15.3102+31.4404+15.3102+31.0128L15.3102+23.4329C15.3102+23.0053+15.6105+22.4855+15.9808+22.2719Z" opacity="1" fill="#d0d2d3"/>
<path d="M24.7423+17.217L31.3088+13.431C31.6793+13.2174+31.9796+13.3909+31.9796+13.8185L31.9796+21.3798C31.9796+21.8074+31.6796+22.3278+31.3095+22.5421L24.7417+26.3441C24.3716+26.5583+24.0715+26.3853+24.0715+25.9577L24.0715+18.3781C24.0715+17.9504+24.3719+17.4306+24.7423+17.217Z" opacity="1" fill="#d0d2d3"/>
<path d="M15.98+32.4183L22.5302+28.6328C22.9001+28.4191+23.2+28.5921+23.2+29.0193L23.2+36.5821C23.2+37.0094+22.9+37.5287+22.5299+37.7422L15.9803+41.5196C15.6102+41.733+15.3102+41.5597+15.3102+41.1325L15.3102+33.5789C15.3102+33.1517+15.6101+32.632+15.98+32.4183Z" opacity="1" fill="#d0d2d3"/>
<path d="M40.741+36.5822L40.741+29.0193C40.741+28.5921+40.4412+28.4192+40.0714+28.6331L33.5299+32.4179C33.1601+32.6319+32.8604+33.1516+32.8604+33.5788L32.8604+41.1326C32.8604+41.5598+33.1603+41.7329+33.5302+41.5193L40.0711+37.7425C40.4411+37.5289+40.741+37.0094+40.741+36.5822Z" opacity="1" fill="#d0d2d3"/>
<path d="M24.7416+37.7422L31.2912+41.5196C31.6613+41.733+31.9613+41.5597+31.9613+41.1325L31.9613+33.5789C31.9613+33.1517+31.6614+32.632+31.2915+32.4183L24.7413+28.6328C24.3714+28.4191+24.0715+28.5921+24.0715+29.0193L24.0715+36.5821C24.0715+37.0094+24.3715+37.5287+24.7416+37.7422Z" opacity="1" fill="#d10000"/>
<path d="M31.75+23.3034L25.1819+27.1056C24.8119+27.3198+24.8123+27.6663+25.1829+27.8796L31.749+31.6577C32.1196+31.871+32.7202+31.8707+33.0906+31.6571L39.6391+27.8803C40.0095+27.6666+40.01+27.3195+39.6402+27.1049L33.0896+23.3041C32.7198+23.0895+32.12+23.0892+31.75+23.3034Z" opacity="1" fill="#ff0000"/>
</g>
<path d="M148.071+13.4449L167.031+13.4449L167.031+13.4804L148.071+13.4804L148.071+13.4449Z" opacity="1" fill="#000000"/>
</g>
</svg>
